<svg width="96" height="22" viewBox="0 0 96 22" fill="none" xmlns="http://www.w3.org/2000/svg">
<path d="M16.589 14.5889C16.589 18.5545 13.5221 21.3333 8.50361 21.3333C3.45721 21.3333 0.306688 18.5256 0 14.1257H4.29363C4.40515 16.4125 5.82707 17.8887 8.41997 17.8887C10.5668 17.8887 12.1002 16.9046 12.1002 15.2257C12.1002 13.9231 11.1244 13.1416 9.42368 12.7942L6.13375 12.1284C3.09476 11.5206 0.752779 9.81275 0.752779 6.36816C0.752779 2.66305 3.9033 0 8.22481 0C12.7136 0 16.0035 2.72094 16.2823 7.06287H11.9887C11.8493 4.8919 10.3995 3.41565 8.28057 3.41565C6.2174 3.41565 5.04641 4.63139 5.04641 6.0787C5.04641 7.49706 6.30104 8.10493 7.75084 8.39439L11.1802 9.11805C14.6931 9.8417 16.589 11.5206 16.589 14.5889Z" fill="white"/>
<path d="M30.8256 21.0439H26.5877V4.22614H20.2867V0.260516H37.1545V4.22614H30.8256V21.0439Z" fill="white"/>
<path d="M55.937 17.223V21.0439H42.4706V0.260516H55.7418V4.08141H46.7085V8.45228H54.9054V12.2442H46.7085V17.223H55.937Z" fill="white"/>
<path d="M74.9401 21.0439H62.0034V0.260516H66.2413V17.0782H74.9401V21.0439Z" fill="white"/>
<path d="M96 14.5889C96 18.5545 92.9331 21.3333 87.9146 21.3333C82.8682 21.3333 79.7177 18.5256 79.411 14.1257H83.7046C83.8161 16.4125 85.2381 17.8887 87.831 17.8887C89.9778 17.8887 91.5112 16.9046 91.5112 15.2257C91.5112 13.9231 90.5354 13.1416 88.8347 12.7942L85.5447 12.1284C82.5057 11.5206 80.1638 9.81275 80.1638 6.36816C80.1638 2.66305 83.3143 0 87.6358 0C92.1246 0 95.4145 2.72094 95.6933 7.06287H91.3997C91.2603 4.8919 89.8105 3.41565 87.6916 3.41565C85.6284 3.41565 84.4574 4.63139 84.4574 6.0787C84.4574 7.49706 85.712 8.10493 87.1618 8.39439L90.5911 9.11805C94.1041 9.8417 96 11.5206 96 14.5889Z" fill="white"/>
</svg>
