<svg width="577" height="177" viewBox="0 0 577 177" fill="none" xmlns="http://www.w3.org/2000/svg">
<path d="M201.003 84.0893L194.834 72.9061C194.555 72.4023 193.723 72.3469 193.35 72.806L171.849 99.3243L123.114 123.057L142.259 98.5668C142.472 98.2971 142.523 97.9594 142.403 97.6522L138.897 88.7788C138.758 88.4287 138.367 88.1911 137.925 88.1857L120.143 88.0178L158.016 36.4336C158.197 36.1889 158.237 35.8887 158.132 35.6118L154.238 25.6273C153.798 24.4982 153.978 23.2638 154.731 22.2544L167.601 5.00254C168 4.46839 168.113 3.81633 167.914 3.21072L166.972 0.336299C166.845 -0.0495653 166.225 -0.122838 165.974 0.218379L102.182 87.8481L70.6724 87.5193L88.1609 65.4101C88.4634 65.0242 88.5235 64.5436 88.3197 64.1149L82.2649 53.5337C82.0246 53.0245 81.1985 52.953 80.8359 53.4068L53.7074 87.3889L0.499457 86.8851C0.128274 86.8816 -0.114177 87.2085 0.0553227 87.4818L8.15483 100.866C8.3608 101.204 8.7792 101.413 9.23192 101.409L42.4775 101.456L23.6523 125.089C23.4034 125.401 23.354 125.794 23.5192 126.141L30.3765 137.737C30.4838 137.966 30.8571 137.996 31.018 137.79L59.6613 101.456L92.2268 101.525L47.2771 163.271C46.8673 163.828 46.7815 164.511 47.0411 165.125L53.8597 176.648C54.0378 177.068 54.7223 177.127 55.0012 176.746L110.209 101.548L122.93 101.566L104.787 126.354C104.542 126.688 104.538 127.104 104.776 127.441L113.266 139.466C113.612 139.954 114.375 140.099 114.94 139.782L159.688 114.633L144.413 133.537C143.905 134.168 144.051 135.02 144.755 135.506L153.219 141.367C153.938 141.864 155.015 141.74 155.545 141.101L200.726 86.7244C201.37 85.9473 201.475 84.9451 201.003 84.0893Z" fill="#515151"/>
<path d="M231.674 80.8902L275.328 80.7419L224.571 89.567L231.674 80.8902ZM291.122 142.525C291.006 142.123 290.727 141.768 290.332 141.519L225.364 100.693L296.295 88.0486C297.694 87.8181 298.524 86.6122 298.061 85.4903L289.019 70.7395C288.865 70.3679 288.448 70.1142 287.974 70.1035L204.563 68.5707C203.909 68.5546 203.501 69.1567 203.855 69.614L212.641 81.0081L156.142 155.564C155.904 155.881 156.245 156.275 156.678 156.19L160.611 155.404C161.079 155.309 161.487 155.071 161.753 154.737L171.747 142.189C172.279 141.519 172.995 140.967 173.834 140.574L189.611 133.194C189.911 133.055 190.164 132.857 190.353 132.617L210.221 107.325L295.898 160.895C296.102 161.024 296.387 160.868 296.327 160.661L291.122 142.525Z" fill="#515151"/>
<path d="M297.993 107.661L315.186 90.4373L309.766 105.612L297.993 107.661ZM332.232 77.8427L324.075 69.1873C323.442 68.5174 322.232 68.4942 321.562 69.1391L266.977 121.752C266.471 122.242 266.576 122.99 267.211 123.365L275.452 128.528C276.063 128.891 276.907 128.795 277.381 128.31L285.498 120.178L306.181 115.643L296.444 142.9C296.273 143.377 296.373 143.894 296.719 144.303L305.503 154.682C305.908 155.166 306.805 155.043 307.009 154.479L333.082 81.5532C333.539 80.2741 333.221 78.8914 332.232 77.8427Z" fill="#515151"/>
<path d="M405.478 117.788L400.747 110.364C400.569 110.083 400.202 109.922 399.823 109.958L347.921 116.039C347.282 116.1 346.881 116.64 347.102 117.143L353.466 125.697C353.624 126.06 354.064 126.281 354.523 126.229L380.643 122.694L357.493 137.555L341.038 117.156L385.746 81.7588L396.669 95.4717C396.993 95.8969 397.729 95.9201 398.091 95.5146C398.091 95.5146 431.594 57.3646 431.622 57.1592C431.644 56.9806 431.191 52.2875 431.03 50.7565C431.004 50.5135 430.639 50.4278 430.464 50.6189L400.17 79.147L389.464 63.0081C389.239 62.6776 388.7 62.6151 388.372 62.8795L324 114.98C323.232 115.6 323.112 116.593 323.715 117.331L353.131 153.337C353.661 153.986 354.744 154.116 355.47 153.618L405.021 119.689C405.699 119.226 405.888 118.431 405.478 117.788Z" fill="#515151"/>
<path d="M432.457 107.707L451.432 83.4473L448.158 103.995L432.457 107.707ZM467.844 66.6706L455.691 61.1951C455.142 60.9486 454.46 61.0879 454.11 61.5184L392.569 138.376C392.369 138.617 392.663 138.93 392.991 138.824L412.394 132.63C412.881 132.475 413.297 132.196 413.584 131.834L422.025 121.043L446.613 113.699L445.369 121.503C445.292 122.006 445.62 122.49 446.173 122.703L458.491 127.387C458.815 127.51 459.191 127.335 459.236 127.041L468.479 67.7014C468.543 67.2816 468.29 66.8725 467.844 66.6706Z" fill="#515151"/>
<path d="M571.023 54.5081L567.809 42.9765C567.563 42.0779 567.702 41.1365 568.208 40.3165L576.834 25.621C576.977 25.3852 577.07 24.9922 576.934 24.6224L575.628 21.0405C575.553 20.8672 575.274 20.735 575.081 21.0191L508.989 132.95L511.606 64.2908C511.619 63.9318 511.362 63.6066 510.965 63.4744L502.284 60.5821C501.902 60.4553 501.47 60.5964 501.295 60.9055L463.041 128.38C462.788 128.829 462.846 129.354 463.196 129.756L470.188 137.793C470.353 137.988 470.707 137.961 470.834 137.748L496.276 94.7018L495.291 139.982L495.15 140.666C495.004 141.366 495.092 142.088 495.405 142.752L505.418 164.011C505.599 164.395 506.238 164.417 506.457 164.049L570.854 55.7873C571.088 55.3907 571.15 54.9369 571.023 54.5081Z" fill="#515151"/>
</svg>
